<svg t="1695042751502" class="icon" viewBox="0 0 1024 1024" version="1.1"
    xmlns="http://www.w3.org/2000/svg" p-id="3478" width="200" height="200">
    <path
        d="M327.9 453.1c21.7 9 46 14.4 71.3 14.4s49.6-5.4 71.3-14.4c64.5-28.4 109.2-92 109.2-166 0-99.7-80.8-180.4-180.5-180.4s-180.4 80.8-180.4 180.4c0 74 44.6 137.6 109.1 166z"
        fill="#F9DB88" p-id="3479"></path>
    <path
        d="M506.9 485.4c-0.5-0.2-1.2-0.1-1.7 0.1-5.7 3.2-11.3 6.5-17.4 9.2-28.1 11.7-58.8 17.9-88.6 17.9s-60.5-6.2-89.5-18.3c-5.8-2.6-11.1-5.8-16.6-8.8-0.5-0.3-1.1-0.3-1.7-0.1-121.2 44.1-208 160-208 296.5v90.2c0 24.9 20.2 45.1 45.1 45.1h541.3c24.9 0 45.1-20.2 45.1-45.1V782c0.1-136.5-86.7-252.5-208-296.6z"
        fill="#ff822d" p-id="3480" data-spm-anchor-id="a313x.search_index.0.i0.43b93a81WRqz7t"
        class="selected"></path>
    <path
        d="M624.8 287.1c0 62.6-26.5 120.9-70.8 163-1 1-0.7 2.7 0.6 3.3 8.8 3.6 37.1 14.1 70.2 14.1 25.3 0 49.6-5.4 71.3-14.4 64.5-28.4 109.2-92 109.2-166 0-99.7-80.8-180.4-180.5-180.4-24.9 0-48.4 5.2-70 14.3-1.3 0.6-1.6 2.3-0.6 3.3 43.2 41.1 70.6 98.6 70.6 162.8z"
        fill="#F9DB88" p-id="3481"></path>
    <path
        d="M731.6 485.1c-6 3.3-11.8 6.8-18.2 9.6-23.1 9.6-47.9 14.8-72.5 16.5-1.8 0.1-2.5 2.3-1.2 3.5C714.2 581.8 760.1 678 760.1 782v90.2c0 15.3-4.1 29.6-10.9 42.2-0.7 1.3 0.2 2.9 1.8 2.9h144.5c24.9 0 45.1-20.2 45.1-45.1V782c0-136.8-87.3-253-209-296.9z"
        fill="#ff822d" p-id="3482" data-spm-anchor-id="a313x.search_index.0.i2.43b93a81WRqz7t"
        class="selected"></path>
</svg>