<svg t="1695809064558" class="icon" viewBox="0 0 1024 1024" version="1.1" xmlns="http://www.w3.org/2000/svg" p-id="5534" width="200" height="200"><path d="M154.336 878.352c64.816 63.296 146.368 109.52 237.392 131.44-91.024-21.92-172.576-68.144-237.392-131.44zM421.408 727.584c-47.584-54.656-92.56-118.096-73.568-145.408 13.024-18.672 43.888-16.416 102.176 7.904 10.496-38.864 32.288-100.176 65.072-100.176h0.336c24.528 0.32 42.112 29.84 57.84 97.984 29.472-12.432 80.976-29.104 100.464-4.064 12.8 16.448 15.616 48.928-64.544 151.952 18.64 34.736 28.912 87.888 28.912 165.536 0 22.512-0.864 47.744-2.56 74.56C840.544 921.232 992 733.968 992 512c0-264.672-215.328-480-480-480S32 247.328 32 512c0 222.256 151.856 409.728 357.248 464.096-1.632-26.24-2.48-50.96-2.48-73.088 0-84.704 12.448-140.704 34.64-175.424z m468.304-354.768c7.984-3.776 17.488-0.352 21.264 7.632 2.24 4.736 54.256 117.744 0.528 262.4-2.4 6.448-8.512 10.432-15.008 10.432-1.856 0-3.728-0.336-5.568-1.008-8.288-3.072-12.512-12.288-9.424-20.576 48.848-131.504 1.008-236.576 0.528-237.632-3.728-7.984-0.304-17.504 7.68-21.248z m-33.44-59.136c0.64-0.8 1.44-1.44 2.4-2.08 0.8-0.48 1.76-0.96 2.72-1.44 0.96-0.32 1.92-0.64 3.04-0.96 2.08-0.32 4.16-0.32 6.24 0l2.88 0.96c1.12 0.48 1.92 0.96 2.88 1.44 0.8 0.64 1.6 1.28 2.4 2.08 3.04 2.88 4.64 7.04 4.64 11.2 0 2.24-0.32 4.16-1.12 6.24-0.96 1.92-2.08 3.68-3.52 5.12-0.8 0.8-1.6 1.44-2.4 2.08-0.96 0.48-1.76 0.96-2.88 1.44-0.96 0.32-1.92 0.64-2.88 0.8-1.12 0.32-2.08 0.32-3.2 0.32-0.96 0-2.08 0-3.04-0.32-1.12-0.16-2.08-0.48-3.04-0.8-0.96-0.48-1.92-0.96-2.72-1.44-0.96-0.64-1.76-1.28-2.4-2.08-1.6-1.44-2.72-3.2-3.52-5.12-0.8-2.08-1.28-4-1.28-6.24 0-4.16 1.76-8.336 4.8-11.2z" fill="#F8CF7A" p-id="5535"></path><path d="M512 0c-50.816 0-99.888 7.408-146.224 21.184C412.112 7.408 461.184 0 512 0c282.768 0 512 229.232 512 512 0 241.072-166.608 443.216-390.944 497.6C857.392 955.216 1024 753.072 1024 512 1024 229.232 794.768 0 512 0z" fill="#F8CF7A" p-id="5536"></path><path d="M512.72 679.904h0.304c32.24 0 59.408 9.36 80.112 32.576 71.744-93.696 59.968-111.28 59.36-112.08-6.224-8.016-46.528 1.12-82.912 18.768l-15.552 7.552-3.52-16.928c-18.816-90.192-35.216-92.928-35.376-92.928h-0.032c-9.232 0-30.304 42.272-42.736 94.944l-3.744 15.824-14.864-6.608c-71.296-31.68-83.472-23.568-83.984-23.232-4.64 11.184 24.976 56.4 69.264 108.368 18.928-17.648 42.416-25.52 69.536-26.24 1.36 0 2.752-0.016 4.144-0.016z" fill="#859B2F" p-id="5537"></path><path d="M512 1024h-1.184 1.184c31.92 0 63.152-2.928 93.456-8.512-30.304 5.584-61.536 8.512-93.456 8.512zM549.968 965.36c-7.456 0-13.472-6.032-13.472-13.472s6.032-13.472 13.472-13.472h60.48c0.464-12.848 0.704-25.264 0.704-37.072 0-188.24-62.112-194.272-94.976-194.464 6.832 30.096 10.448 67.536 10.448 113.584 0 48.4-4.032 109.328-11.6 171.536 31.856-0.192 62.976-3.52 93.088-9.664 0.4-5.712 0.752-11.376 1.072-16.976h-59.216z m-3.136-195.488c-0.672-0.608-1.344-1.216-1.888-1.776-0.64-0.736-1.136-1.44-1.472-2.224-0.976-1.52-1.488-3.2-1.712-4.944-0.224-1.744-0.144-3.536 0.32-5.216 0.976-3.504 3.296-6.368 6.448-8.144 4.512-2.672 10.672-2.224 14.944 1.056 1.376 1.088 2.528 2.512 3.376 4.016 1.792 3.152 2.176 6.752 1.216 10.256-0.464 1.68-1.184 3.312-2.272 4.688-1.072 1.376-2.512 2.528-4 3.36-1.536 0.976-3.216 1.488-4.944 1.712-1.872 0.176-3.664 0.112-5.36-0.352-0.768-0.208-1.648-0.592-2.4-0.944-0.832-0.544-1.568-0.896-2.256-1.488z m22.48 8.256c6.64-3.312 14.688-0.656 18.032 5.984 1.04 2.064 25.152 51.28 3.872 120.08-2.16 6.976-9.472 10.944-16.464 9.008-0.128-0.032-0.272-0.08-0.4-0.112-7.12-2.192-11.104-9.744-8.896-16.864 17.92-57.936-2.032-99.648-2.24-100.064-3.264-6.64-0.544-14.72 6.096-18.032zM508.56 679.952c0 0.016 0 0.016 0 0 1.424-0.032 2.864-0.048 4.32-0.048h-0.16c-1.392 0-2.784 0.016-4.16 0.048z" fill="#F5B080" p-id="5538"></path><path d="M508.56 679.968c-27.12 0.72-50.608 8.576-69.536 26.224-6.4 5.968-12.288 13.072-17.616 21.392-22.208 34.704-34.64 90.72-34.64 175.424 0 22.128 0.848 46.848 2.48 73.088 0.096 0.032 0.208 0.048 0.304 0.08-1.648-26.272-2.48-51.008-2.48-73.168 0-164.768 47.056-220.928 121.488-223.04zM391.728 1009.792c0.096 0.032 0.208 0.048 0.304 0.08-0.096-0.032-0.208-0.064-0.304-0.08z" fill="#ED9459" p-id="5539"></path><path d="M516.176 706.864h-3.168c-25.744 0-81.504 0-95.664 128.752H479.2c7.456 0 13.472 6.032 13.472 13.472s-6.032 13.472-13.472 13.472H415.136c-0.72 12.448-1.104 25.904-1.104 40.432 0 24.4 1.04 51.36 2.96 79.536 30.72 6.192 62.496 9.44 95.008 9.44 1.008 0 2.016 0 3.024-0.016 7.568-62.208 11.6-123.136 11.6-171.536 0-46.016-3.616-83.456-10.448-113.552zM419.616 1015.68c29.584 5.392 60.064 8.24 91.2 8.32-31.136-0.08-61.6-2.928-91.2-8.32z" fill="#ED9459" p-id="5540"></path><path d="M563.232 796.176c0.208 0.416 20.16 42.128 2.24 100.064-2.208 7.104 1.776 14.656 8.896 16.864 0.128 0.048 0.272 0.08 0.4 0.112 6.992 1.936 14.304-2.032 16.464-9.008 21.28-68.8-2.848-118.016-3.872-120.08-3.344-6.64-11.392-9.296-18.032-5.984-6.656 3.296-9.376 11.376-6.096 18.032zM551.488 772.272c1.696 0.464 3.488 0.544 5.36 0.352 1.744-0.224 3.424-0.736 4.944-1.712 1.488-0.848 2.928-1.984 4-3.36 1.088-1.376 1.808-2.992 2.272-4.688 0.976-3.504 0.576-7.12-1.216-10.256-0.848-1.504-1.984-2.928-3.376-4.016-4.272-3.28-10.432-3.728-14.944-1.056-3.152 1.792-5.488 4.64-6.448 8.144-0.464 1.68-0.544 3.488-0.32 5.216 0.224 1.744 0.736 3.424 1.712 4.944 0.336 0.8 0.848 1.504 1.472 2.224 0.544 0.56 1.216 1.168 1.888 1.776 0.672 0.608 1.424 0.944 2.256 1.456 0.752 0.368 1.632 0.768 2.4 0.976zM882.032 394.08c0.48 1.04 48.32 106.112-0.528 237.632-3.072 8.288 1.152 17.488 9.424 20.576 1.84 0.672 3.712 1.008 5.568 1.008 6.496 0 12.608-4 15.008-10.432 53.728-144.656 1.696-257.664-0.528-262.4-3.776-7.984-13.296-11.392-21.264-7.632-7.984 3.728-11.408 13.248-7.68 21.248zM856.272 336.24c0.64 0.8 1.44 1.44 2.4 2.08 0.8 0.48 1.76 0.96 2.72 1.44 0.96 0.32 1.92 0.64 3.04 0.8 0.96 0.32 2.08 0.32 3.04 0.32 1.12 0 2.08 0 3.2-0.32 0.96-0.16 1.92-0.48 2.88-0.8 1.12-0.48 1.92-0.96 2.88-1.44 0.8-0.64 1.6-1.28 2.4-2.08 1.44-1.44 2.56-3.2 3.52-5.12 0.8-2.08 1.12-4 1.12-6.24 0-4.16-1.6-8.32-4.64-11.2-0.8-0.8-1.6-1.44-2.4-2.08-0.96-0.48-1.76-0.96-2.88-1.44l-2.88-0.96c-2.08-0.32-4.16-0.32-6.24 0-1.12 0.32-2.08 0.64-3.04 0.96-0.96 0.48-1.92 0.96-2.72 1.44-0.96 0.64-1.76 1.28-2.4 2.08-3.04 2.88-4.8 7.04-4.8 11.2 0 2.24 0.48 4.16 1.28 6.24 0.8 1.92 1.92 3.664 3.52 5.12z" fill="#FFFFFF" p-id="5541"></path><path d="M1024 512C1024 229.232 794.768 0 512 0c-50.816 0-99.888 7.408-146.224 21.184C154.256 84.112 0 280.032 0 512c0 143.6 59.12 273.376 154.336 366.352 64.816 63.296 146.368 109.52 237.392 131.44 0.096 0.032 0.208 0.048 0.304 0.08 9.104 2.192 18.304 4.128 27.584 5.824 29.584 5.392 60.064 8.24 91.2 8.304h1.184c31.92 0 63.152-2.928 93.456-8.512 9.28-1.712 18.48-3.68 27.6-5.888C857.392 955.216 1024 753.072 1024 512zM389.248 976.096C183.856 921.728 32 734.256 32 512c0-264.672 215.328-480 480-480s480 215.328 480 480c0 221.968-151.456 409.232-356.448 463.888 1.696-26.8 2.56-52.032 2.56-74.56 0-77.632-10.272-130.8-28.912-165.536 80.16-103.024 77.36-135.504 64.544-151.952-19.488-25.024-70.992-8.368-100.464 4.064-15.728-68.144-33.312-97.68-57.84-97.984h-0.336c-32.784 0-54.576 61.312-65.072 100.176-58.304-24.32-89.168-26.576-102.176-7.904-19.008 27.296 25.968 90.752 73.568 145.408 5.328-8.32 11.2-15.424 17.616-21.392-44.288-51.968-73.904-97.184-69.264-108.368 0.496-0.352 12.672-8.464 83.984 23.232l14.864 6.608 3.744-15.824c12.432-52.672 33.52-94.944 42.736-94.944h0.032c0.16 0 16.56 2.736 35.376 92.928l3.52 16.928 15.552-7.552c36.384-17.648 76.688-26.784 82.912-18.768 0.624 0.8 12.384 18.384-59.36 112.08-20.704-23.216-47.872-32.576-80.112-32.576h-0.144c-1.456 0-2.88 0.016-4.32 0.064-74.432 2.112-121.488 58.272-121.488 223.04 0 22.144 0.848 46.896 2.48 73.168-0.096-0.08-0.192-0.096-0.304-0.128z m125.776 15.888c-1.008 0-2.016 0.016-3.024 0.016-32.512 0-64.288-3.248-95.008-9.44-1.92-28.176-2.96-55.136-2.96-79.536 0-14.528 0.384-27.984 1.104-40.432H479.2c7.456 0 13.472-6.032 13.472-13.472s-6.032-13.472-13.472-13.472h-61.856c14.16-128.752 69.92-128.752 95.664-128.752h3.168c32.864 0.192 94.976 6.208 94.976 194.464 0 11.808-0.24 24.208-0.704 37.072h-60.48c-7.456 0-13.472 6.032-13.472 13.472s6.032 13.472 13.472 13.472h59.2c-0.32 5.6-0.688 11.264-1.072 16.976-30.096 6.128-61.232 9.44-93.072 9.632z" fill="#333333" p-id="5542"></path></svg>