<svg t="1695721713561" class="icon" viewBox="0 0 1024 1024" version="1.1" xmlns="http://www.w3.org/2000/svg" p-id="8232" width="200" height="200"><path d="M910.9 771.6c-32.1-45.1-76.5-79.2-128.4-98.3 37.7-25 65.4-65.3 72.3-110.5 1.4-9.3 2.4-18.5 2.5-27.9-0.2-33.5-10.3-67.4-29.9-94.7-20.3-28.2-47.7-49.3-80.4-61.3-63.4-23.2-139.2-2.7-182 49.6-22.3 27.2-35.5 59.4-38.3 94.5-2.7 33.6 5.8 68.5 23.2 97.3 12.7 21 30.3 39.4 50.9 53-44.1 16-84.2 43.7-114.1 79.9-35.7 43.3-57.2 95.6-61.7 151.5-0.5 6.7-0.8 13.5-0.8 20.2 0 11.2 9.9 22 21.5 21.5 11.7-0.5 21.5-9.4 21.5-21.5 0-6.5 0.3-13 0.8-19.6 0.2-3 0.5-6 0.9-8.9 0.1-0.5 0.2-1.4 0.3-2.2-0.1 0.5-0.2 1-0.3 1.8 0.3-1.6 0.5-3.2 0.7-4.7 2-12.2 4.9-24.3 8.7-36.1 1.9-5.9 4.1-11.7 6.4-17.5v-0.1c0-0.1 0.1-0.2 0.1-0.3 0.5-1.2 1.1-2.4 1.6-3.6 1.4-3 2.8-6 4.3-8.9 5.4-10.8 11.7-21.1 18.7-30.9 1.5-2.1 3.9-4.4 5-6.8 0.1-0.1 0.2-0.3 0.3-0.4 1.1-1.4 2.2-2.7 3.3-4.1 3.8-4.5 7.7-8.9 11.8-13.1 4.2-4.4 8.6-8.6 13.2-12.7 2.1-1.9 4.3-3.7 6.4-5.6 1.2-1 2.4-1.9 3.5-2.9 0.2-0.2 0.6-0.5 1.1-0.9 0.5-0.3 2.4-1.8 2.9-2.2 1.2-0.9 2.5-1.8 3.7-2.7 2.5-1.8 5-3.5 7.6-5.2 5.1-3.4 10.4-6.5 15.8-9.5 5.2-2.9 10.5-5.6 15.9-8 1.4-0.6 2.8-1.3 4.2-1.9 0.1 0 0.2-0.1 0.3-0.1h0.1c2.9-1.1 5.8-2.3 8.7-3.4 11.6-4.2 23.5-7.6 35.6-10 2.9-0.6 5.8-1.1 8.7-1.6 1-0.2 1.9-0.3 2.9-0.4 1 0 2-0.3 3-0.4 6.2-0.7 12.4-1.2 18.7-1.4 13-0.5 26 0 39 1.5 1.4 0.4 3.1 0.4 4.5 0.7 3.1 0.5 6.3 1.1 9.4 1.7 6.2 1.2 12.3 2.7 18.4 4.4 5.8 1.6 11.5 3.5 17.2 5.6 2.9 1.1 5.8 2.2 8.6 3.3 1.6 0.7 3.1 1.4 4.7 2.1 11 5 21.6 10.9 31.7 17.5 2.4 1.6 4.7 3.1 7.1 4.8 1.3 0.9 2.5 1.8 3.7 2.7 0.5 0.4 1.1 0.8 1.6 1.2 0.2 0.1 1.2 0.9 1.7 1.3 0.3 0.2 0.5 0.4 0.7 0.5 1.2 1 2.4 1.9 3.6 2.9 2.3 1.9 4.7 3.9 6.9 6 9.1 8.1 17.6 16.9 25.4 26.3 0.8 1 1.7 2 2.5 3 0.2 0.2 0.5 0.7 0.9 1.2 0.4 0.6 1.8 2.4 2.1 2.8 0.9 1.2 1.8 2.5 2.7 3.7 3.5 5 6.9 10.1 10.1 15.4 3.1 5.1 5.9 10.3 8.6 15.6 1.4 2.8 2.7 5.5 4 8.3 0.6 1.2 1.1 2.4 1.6 3.6 0 0 0 0.1 0.1 0.2-0.1-0.4-0.1-0.3 0.4 0.8 0.1 0.3 0.3 0.7 0.4 1v0.1c4.4 11.1 8.1 22.4 10.9 34 1.5 6.2 2.7 12.4 3.7 18.6l0.6 3.9c0 0.2 0 0.4 0.1 0.6 0.4 3.2 0.7 6.4 0.9 9.6 0.5 6.5 0.7 13 0.8 19.6 0 11.2 9.9 22 21.5 21.5s21.5-9.4 21.5-21.5c-0.5-54.6-17.1-109.1-48.8-153.5z m-397.4 16.6c0.3-0.3 0.5-0.7 0.8-1-0.6 0.8-2.8 3.5-0.8 1zM805 487.6c1.3 2.8 0.1 0.3-0.4-0.9 0.1 0.3 0.3 0.6 0.4 0.9z m-160.5-65.9c2.8-1.3 0.2 0-1 0.4 0.3-0.1 0.6-0.2 1-0.4z m-65.9 65.9c0.1-0.3 0.3-0.6 0.4-0.9-0.5 1.1-1.7 3.6-0.4 0.9z m96.5 168.9c-2.6-0.3-1-0.1 0.4 0h-0.4z m33.4 0h-0.4c1.4-0.1 3.1-0.3 0.4 0z m64.7-30c-1.3 1.2-2.6 2.3-3.9 3.4-0.7 0.6-1.3 1.1-2 1.7-0.6 0.5-3.5 3.1-0.9 0.7 2.7-2.4-1.9 1.4-2.6 1.8-1.3 0.9-2.5 1.7-3.8 2.6-3.1 2-6.3 4-9.6 5.8-2.9 1.6-5.8 3.1-8.8 4.5-0.4 0.2-0.7 0.3-1.1 0.5h0.2-0.2c-0.4 0.2-0.8 0.4-1.3 0.6-0.8 0.4-1.2 0.4-1.2 0.3-1 0.5-2 1-2.9 1.3-6.5 2.4-13.3 4.2-20.1 5.6-1.8 0.4-3.6 0.7-5.4 1-0.5 0.1-1.7 0.1-2.4 0.3-3.3 0.3-6.5 0.6-9.8 0.7-7 0.3-14-0.1-21-0.7-0.7-0.2-1.9-0.2-2.3-0.3-1.8-0.3-3.6-0.6-5.4-1-3.5-0.7-7-1.6-10.5-2.6-3.2-0.9-6.4-1.9-9.6-3.1-1.5-0.5-2.9-1.1-4.4-1.7-0.7-0.3-1.5-0.6-2.2-1-6.4-3-12.5-6.4-18.4-10.3-1.3-0.8-2.5-1.7-3.8-2.6-0.4-0.3-3.2-2.4-3.4-2.5-0.4-0.4-0.9-0.7-1.1-0.9-1.5-1.3-3-2.5-4.5-3.8-5.2-4.7-10.1-9.7-14.5-15.1-0.2-0.2-0.8-1-1.4-1.7-0.4-0.6-1.7-2.3-2-2.8-2.2-3-4.2-6.2-6.1-9.3-1.7-2.8-3.3-5.7-4.8-8.6-0.8-1.6-1.6-3.2-2.3-4.8-0.3-0.6-0.6-1.2-0.8-1.8-2.2-6.5-4.6-12.8-6.3-19.5-0.9-3.5-1.6-7.1-2.2-10.7-0.1-0.5-0.2-1.1-0.2-1.7-0.2-1.6-0.3-3.3-0.5-4.9-0.6-7.4-0.6-14.9 0-22.4 0.1-1.4 0.2-2.7 0.4-4.1 0 0.1-0.1 0.1-0.1 0.2 0-0.1 0.1-0.2 0.1-0.3 0-0.4 0.1-0.9 0.1-1.3 0-0.3 0.1-0.6 0.1-0.8v-0.3c0.6-3.6 1.3-7.1 2.2-10.7 0.8-3.3 1.7-6.5 2.7-9.7 0.5-1.7 1.1-3.4 1.7-5.1 0.5-1.4 2-3.9 2.1-5.4 0.2-0.4 0.3-0.8 0.5-1.1 0.7-1.4 1.3-2.8 2-4.2 1.7-3.3 3.5-6.6 5.4-9.8 1.7-2.8 3.5-5.6 5.4-8.2 0.3-0.4 0.7-0.9 1.2-1.4-0.1-0.1 0.1-0.4 0.6-1 0.3-0.4 0.6-0.7 0.9-1.1 0 0 0-0.1 0.1-0.2v0.1c0.5-0.6 1-1.3 1.6-1.9 4.4-5.2 9.1-10 14.1-14.6 1.6-1.5 3.6-2.8 5.3-4.2-0.2 0 0.2-0.6 1-1.1 0.3-0.2 0.6-0.4 0.9-0.7l0.3-0.3-0.3 0.3c0.4-0.3 0.8-0.6 1.2-0.8 1.6-1.1 3.2-2.2 4.9-3.3 5.9-3.8 12.1-7.2 18.5-10.2 0.2-0.1 0.3-0.2 0.5-0.2 1.4-0.1 3.5-1.4 4.8-1.9 3.4-1.2 6.8-2.3 10.2-3.3 3.5-1 7-1.8 10.5-2.6 1.8-0.4 3.6-0.7 5.4-1 0.4-0.1 0.9-0.1 1.3-0.2 7.4-0.8 14.7-1.1 22.1-0.8 3.7 0.1 7.3 0.5 10.9 0.8 0.2 0 0.3 0.1 0.5 0.1 2 0.3 4 0.7 6 1.1 7 1.4 14 3.4 20.7 5.9 1.3 0.5 3.4 1.8 4.8 1.9 0.2 0.1 0.4 0.2 0.5 0.2 3.4 1.6 6.7 3.3 10 5.1 2.9 1.6 5.7 3.3 8.4 5.1 1.3 0.8 2.6 1.7 3.8 2.6l2.1 1.5s0.1 0 0.1 0.1c-0.1-0.1-0.2-0.2-0.2-0.3l0.3 0.3c0.6 0.5 1.1 1 1.4 1.4 1.9 1.6 4 3 5.8 4.6 2.6 2.3 5.1 4.8 7.5 7.3 2.3 2.4 4.5 4.8 6.6 7.3 0.5 0.6 1 1.3 1.5 1.9 0.2 0.2 0.5 0.5 0.8 0.9 0.2 0.3 0.4 0.5 0.6 0.8l0.4 0.4-0.3-0.3c0.4 0.6 0.8 1.1 1.2 1.7 4 5.7 7.7 11.8 10.8 18 0.7 1.4 1.4 2.8 2 4.2 0.2 0.4 0.3 0.8 0.5 1.1 0.1 1.4 1.5 3.6 1.9 4.8 0.7 1.9 1.3 3.8 1.9 5.7 2.1 6.7 3.8 13.5 4.9 20.4v0.3c0.1 0.2 0.1 0.5 0.1 0.8 0 0.4 0.1 0.9 0.1 1.3 0 0.1 0.1 0.2 0.1 0.3 0-0.1-0.1-0.1-0.1-0.2 0.1 1.4 0.3 2.7 0.4 4.1 0.3 3.7 0.4 7.5 0.4 11.2 0 3.7-0.1 7.5-0.4 11.2-0.1 1.6-0.3 3.2-0.5 4.8-0.1 0.7-0.2 1.5-0.3 1.8-1.2 7.1-2.9 14.1-5.1 21-1 3-2.2 6-3.3 9-0.2 0.5-0.4 0.9-0.6 1.4-0.8 1.8-1.7 3.6-2.6 5.4-3.2 6.3-6.8 12.3-10.9 18-0.5 0.7-3.8 4.7-1.4 2s-1.5 1.9-2 2.4c-2.2 2.7-4.6 5.3-7 7.8-1.7 2.5-4.1 4.8-6.5 7z m126.1 212.2c0.1 0.1 0.1 0.3 0.2 0.4 0-0.1-0.1-0.2-0.2-0.4z" p-id="8233" data-spm-anchor-id="a313x.search_index.0.i16.29333a81wiFQek" class="" fill="#ff6723"></path><path d="M469.3 894.3c0.3-2.1 0.2-1.3 0 0zM898.6 836.9c0.1 0.2 0.2 0.7 0.4 1.1-0.2-0.4-0.3-0.8-0.4-1.1zM737.9 648.4c0.9-0.4 1.7-0.7 2.5-0.8-1.7 0.1-2.5 0.6-2.5 0.8zM789.8 461.2c0-0.1-0.1-0.1-0.1-0.2-0.5-0.5-1-1.1-1.4-1.7-0.5-0.3-0.4 0.1 1.5 1.9zM813.5 519.6c-0.2-0.7-0.2-1.6-0.3-2.2-0.3-1.1-0.8-0.3 0.3 2.2zM595.2 459.4c-0.3 0.7-0.9 1.5-1.5 2.2 0.1 0.1 1-0.6 1.5-2.2zM570.4 517.4c-0.1 0.6-0.1 1.5-0.3 2.1v0.1c1.1-2.5 0.6-3.3 0.3-2.2zM767 438.3c-0.5-0.4-1-0.9-1.4-1.4l-0.1-0.1c1.7 2.1 1.9 2.1 1.5 1.5zM618.1 436.9c-0.6 0.6-1.3 1.2-1.9 1.8 0.2 0 0.7-0.5 1.9-1.8zM109.7 379c-0.2 1.5-0.3 5.6 0 0z" p-id="8234"></path><path d="M362.5 722.4c-20-3.4-39.6-8.6-58.6-15.7-4.3-1.6-8.5-3.3-12.7-5 6.3 2.5-1.5-0.7-3-1.4-2.5-1.1-4.9-2.3-7.4-3.4-8.7-4.2-17.3-8.8-25.6-13.8-8.5-5.1-16.7-10.5-24.7-16.3-1.8-1.3-3.5-2.6-5.3-3.9-0.9-0.7-1.7-1.4-2.6-2.1-4-3.2-7.9-6.5-11.8-9.9-14.4-12.7-27.7-26.7-39.6-41.7v-0.1c0 0.1 0.1 0.1 0.1 0.2-0.1-0.1-0.1-0.2-0.2-0.3 0 0.1 0.1 0.1 0.1 0.1-2.2-3.9-1.4-2.1-0.4-0.6l-1.5-1.8c-1.5-2-2.9-4-4.4-6-2.9-4-5.7-8.1-8.3-12.2-5.4-8.3-10.4-16.8-15-25.6-2.1-4-4.1-8-6.1-12.1-1-2-1.9-4.1-2.9-6.2-0.5-1.2-1.1-2.4-1.6-3.7-0.2-2.3-2.2-5.4-3-7.5-0.8-2.1-1.6-4.3-2.4-6.4-1.7-4.7-3.3-9.5-4.8-14.3-3-9.7-5.6-19.5-7.6-29.4-1-4.6-1.8-9.1-2.6-13.7-0.4-2.4-0.7-4.8-1.1-7.1-0.2-1.7-0.4-3.5-0.6-5.3-2.2-20.2-2.5-40.6-1-60.8 0.4-4.8 0.8-9.6 1.4-14.4 0.1-1.1 0.4-2.3 0.4-3.4V378.9c0.4-2.7 0.8-5.4 1.3-8.1 1.7-9.6 3.8-19.1 6.3-28.4 2.5-9.3 5.4-18.4 8.7-27.4 1.7-4.6 3.8-9 5.4-13.6-2.2 6.3 0.3-0.7 1-2.2l3.3-7.2c8.2-17.2 18-33.7 29.1-49.2 1.4-2 2.8-3.9 4.3-5.8 0.4-0.6 0.8-1.1 1.3-1.7l0.2-0.2c3-3.7 6-7.5 9.2-11.1 6.3-7.3 12.8-14.3 19.7-20.9 6.9-6.7 14-13.1 21.5-19.1 1-0.8 2.2-1.6 3.2-2.4 0.3-0.3 0.7-0.8 1.2-1.1 0.2-0.2 0.4-0.3 0.6-0.5l0.1-0.1-0.1 0.1c0.7-0.5 1.3-1 2-1.5 3.9-2.9 7.8-5.7 11.8-8.4 16-10.8 33-20.3 50.6-28.1l2.7-1.2c1.9-0.8 3.7-1.5 5.6-2.3 5-1.9 10-3.8 15-5.5 8.9-3 18-5.6 27.1-7.8 9.7-2.3 19.5-4.1 29.4-5.6h0.2c0.8-0.1 1.5-0.2 2.3-0.3 2.5-0.3 5-0.6 7.5-0.8 5.3-0.5 10.6-0.9 15.9-1.1 10.8-0.5 21.6-0.5 32.4 0.1 5.6 0.3 11.2 0.7 16.7 1.3 2.5 0.3 5.4 0.3 7.9 0.9-0.1 0-0.2 0-0.2-0.1 0.3 0.1 0.6 0.1 0.8 0.1 1.6 0.2 3.1 0.5 4.7 0.7 22.5 3.6 44.6 9.6 65.8 17.9 2.4 0.9 4.8 1.7 7.1 2.9-5.5-2.7 2.2 1 3.3 1.5 5.3 2.4 10.6 4.9 15.8 7.6 9.7 5 19.1 10.5 28.2 16.4 4.6 3 9.2 6.2 13.7 9.4 1.4 1 3 2 4.4 3.2l0.8 0.8c1.6 1.3 3.2 2.5 4.7 3.8 8.6 7 16.8 14.4 24.6 22.2 7.5 7.5 14.6 15.3 21.3 23.4 7.2 8.7 23.1 8 30.4 0 8.5-9.2 7.7-21.1 0-30.4C616.6 124.4 524.3 79 427.7 74.3c-86-4.2-170.7 24.8-237.2 79.1C127.2 204.9 83 280.3 69.3 360.7c-14.7 86.5 2.5 177 50.9 250.6 46.7 71.1 118.7 124.1 201 146.1 9.8 2.6 19.8 4.8 29.9 6.5 11 1.9 23.7-2.9 26.4-15 2.4-10.4-3.2-24.4-15-26.5z" p-id="8235" data-spm-anchor-id="a313x.search_index.0.i18.29333a81wiFQek" class="selected" fill="#ff822d"></path><path d="M224.1 181.4c-0.6 0.7-0.5 0.9 1.8-1.6-0.6 0.6-1.2 1.1-1.8 1.6zM430.4 413.6v-71.3-62.8c0-11.2-9.9-22-21.5-21.5s-21.5 9.4-21.5 21.5V410l-89.8 89.8-13.4 13.4c-8 8-8.6 22.6 0 30.4 8.6 7.9 21.9 8.5 30.4 0l92-92c5.4-5.4 10.9-10.8 16.2-16.2 4.5-4.6 7.3-9.9 7.6-16.6v-5.2z" p-id="8236" data-spm-anchor-id="a313x.search_index.0.i17.29333a81wiFQek" class="" fill="#00d26a"></path></svg>