<svg t="1695539225678" class="icon" viewBox="0 0 1042 1024" version="1.1" xmlns="http://www.w3.org/2000/svg" p-id="7229" data-spm-anchor-id="a313x.search_index.0.i13.96cc3a81jj1wLW" width="200" height="200"><path d="M522.971429 676.571429c120.685714 0 219.428571-98.742857 219.428571-219.428572s-98.742857-219.428571-219.428571-219.428571-219.428571 98.742857-219.428572 219.428571 98.742857 219.428571 219.428572 219.428572z m0-365.714286c80.457143 0 146.285714 65.828571 146.285714 146.285714s-65.828571 146.285714-146.285714 146.285714-146.285714-65.828571-146.285715-146.285714 65.828571-146.285714 146.285715-146.285714z" p-id="7230" data-spm-anchor-id="a313x.search_index.0.i11.96cc3a81jj1wLW" class="" fill="#ff822d"></path><path d="M521.142857 491.885714h109.714286v-73.142857h-73.142857v-73.142857h-73.142857v109.714286c0 21.942857 16.457143 36.571429 36.571428 36.571428z" p-id="7231" data-spm-anchor-id="a313x.search_index.0.i12.96cc3a81jj1wLW" class="" fill="#00d26a"></path><path d="M925.257143 109.714286h-804.571429c-20.114286 0-36.571429 16.457143-36.571428 36.571428v621.714286c0 20.114286 16.457143 36.571429 36.571428 36.571429h804.571429c20.114286 0 36.571429-16.457143 36.571428-36.571429V146.285714c0-20.114286-14.628571-36.571429-36.571428-36.571428z m-36.571429 621.714285h-731.428571V182.857143h731.428571v548.571428zM760.685714 841.142857h-475.428571v73.142857h475.428571v-73.142857z" p-id="7232" data-spm-anchor-id="a313x.search_index.0.i15.96cc3a81jj1wLW" class="selected" fill="#ff6723"></path></svg>